HIERARCHY
ROOT Hips
{
	OFFSET 0.000000 0.000000 0.000000 
	CHANNELS 6 Xposition Yposition Zposition Yrotation Zrotation Xrotation 
	JOINT Lumbar
	{
		OFFSET 0.000000 0.000000 0.000000 
		CHANNELS 3 Zrotation Xrotation Yrotation
		JOINT Neck
		{
			OFFSET 0.000000 0.445665 0.000000 
			CHANNELS 3 Zrotation Xrotation Yrotation
			End Site
			{
				OFFSET 0.000000 0.227535 0.000000 
			}
		}
		JOINT RightShoulder
		{
			OFFSET 0.019635 0.377685 0.194865 
			CHANNELS 3 Zrotation Xrotation Yrotation
			JOINT RightElbow
			{
				OFFSET 0.000000 -0.243375 0.000000 
				CHANNELS 2 Zrotation Yrotation
				JOINT RightWrist
				{
					OFFSET 0.000000 -0.264825 0.000000 
					CHANNELS 2 Zrotation Xrotation
					End Site
					{
						OFFSET 0.006600 -0.176220 0.000990 
					}
				}
			}
		}
		JOINT LeftShoulder
		{
			OFFSET 0.019635 0.377685 -0.194865 
			CHANNELS 3 Zrotation Xrotation Yrotation
			JOINT LeftElbow
			{
				OFFSET 0.000000 -0.243375 0.000000 
				CHANNELS 2 Zrotation Yrotation
				JOINT LeftWrist
				{
					OFFSET 0.000000 -0.264825 0.000000 
					CHANNELS 2 Zrotation Xrotation
					End Site
					{
						OFFSET 0.006600 -0.176220 -0.000990 
					}
				}
			}
		}
	}
	JOINT RightHip
	{
		OFFSET 0.052140 -0.069960 0.075570 
		CHANNELS 3 Zrotation Xrotation Yrotation
		JOINT RightKnee
		{
			OFFSET 0.000000 -0.402270 0.000000 
			CHANNELS 1 Zrotation
			JOINT RightAnkle
			{
				OFFSET 0.000000 -0.404085 0.000000 
				CHANNELS 3 Zrotation Xrotation Yrotation
				End Site
				{
					OFFSET 0.204105 -0.089430 0.008415 
				}
			}
		}
	}
	JOINT LeftHip
	{
		OFFSET 0.052140 -0.069960 -0.075570 
		CHANNELS 3 Zrotation Xrotation Yrotation
		JOINT LeftKnee
		{
			OFFSET 0.000000 -0.402270 0.000000 
			CHANNELS 1 Zrotation
			JOINT LeftAnkle
			{
				OFFSET 0.000000 -0.404085 0.000000 
				CHANNELS 3 Zrotation Xrotation Yrotation
				End Site
				{
					OFFSET 0.204105 -0.089430 -0.008415 
				}
			}
		}
	}
}
MOTION
Frames: 11
Frame Time: 0.02
0.32302 0.04936 0.04292 60.26559 -16.89867 -7.22364 33.9519 0.61823 -2.36845 -11.69673 -2.0807 -0.83078 5.29717 -28.5701 25.30222 126.75897 112.92147 18.0049 2.1845 12.62302 41.54922 -8.01094 122.83096 -100.23439 26.04155 1.16907 26.01158 1.7695 -9.40234 -19.57175 -7.52034 -5.35088 -3.54619 36.61418 12.26674 -5.47802 -32.51522 -9.17161 2.25844 1.88743
0.32679 0.04863 0.04469 60.43461 -16.79846 -7.52366 33.99789 0.61125 -2.68045 -11.87388 -1.42862 -0.83078 5.85183 -28.76989 25.14898 126.50739 111.16929 18.53509 1.72109 11.26137 40.96915 -7.43532 122.64613 -97.70157 26.32283 1.50706 25.84483 2.22738 -10.01457 -19.58642 -7.44408 -5.32384 -3.52661 36.42062 12.49598 -4.97039 -32.38184 -9.11739 2.47575 2.00598
0.33036 0.04768 0.04604 60.50669 -16.77062 -7.87515 34.13445 0.62156 -3.08071 -12.05398 -0.65768 -0.83078 6.46191 -28.77647 24.93438 126.10548 108.20163 19.40819 1.05157 9.4837 40.54361 -6.57503 122.40964 -92.96281 26.8648 2.12866 25.76954 2.70255 -10.66851 -19.63336 -7.34682 -5.28815 -3.50061 36.15763 12.73188 -4.49009 -32.10351 -9.02362 2.73398 2.14616
0.33395 0.04685 0.04757 60.61682 -16.70623 -8.1929 34.22366 0.62546 -3.42407 -12.232 0.0449 -0.83078 7.02252 -28.85706 24.74413 125.78353 105.95557 20.08884 0.50954 7.92225 40.05145 -5.85178 122.20811 -89.4783 27.25751 2.58896 25.65022 3.15857 -11.29477 -19.66208 -7.26107 -5.25661 -3.47755 35.93262 12.96209 -3.99638 -31.90377 -8.95148 2.96678 2.27283
0.33785 0.0459 0.04911 60.74846 -16.65371 -8.56007 34.3393 0.6237 -3.84054 -12.41493 0.823 -0.83078 7.69373 -29.0043 24.56906 125.4119 103.03216 20.91344 -0.17232 6.23098 39.53796 -5.09318 121.95999 -85.0115 27.75901 3.17587 25.53722 3.66702 -11.96419 -19.70596 -7.16623 -5.22353 -3.45398 35.67235 13.20817 -3.50286 -31.64527 -8.86247 3.23071 2.41617
0.34105 0.04516 0.05054 60.81441 -16.59582 -8.83414 34.4211 0.63711 -4.12497 -12.58691 1.46641 -0.83078 8.14344 -28.96479 24.34817 125.10847 101.20373 21.52476 -0.61554 4.71954 39.10718 -4.34233 121.79545 -82.02026 28.10692 3.57241 25.43524 4.068 -12.54972 -19.7259 -7.08578 -5.19192 -3.43023 35.47378 13.42072 -3.01805 -31.47742 -8.79963 3.43789 2.52907
0.34246 0.04506 0.05181 60.71434 -16.49582 -8.84101 34.39 0.69543 -4.02208 -12.737 1.70711 -0.83078 7.98315 -28.44215 24.01037 125.02735 102.85852 21.45082 -0.31782 3.77698 38.87794 -3.67612 121.88031 -83.83843 27.92871 3.34815 25.33044 4.17478 -12.91205 -19.67148 -7.04847 -5.16556 -3.40613 35.44167 13.54225 -2.53804 -31.58453 -8.82016 3.48772 2.55778
0.34317 0.04519 0.05299 60.55337 -16.39012 -8.7514 34.32144 0.76741 -3.78355 -12.87421 1.80644 -0.83078 7.59481 -27.73976 23.62976 125.02046 105.62499 21.15425 0.2215 3.03713 38.72663 -3.02957 122.04992 -87.17373 27.59531 2.9282 25.23607 4.17107 -13.18473 -19.59206 -7.02675 -5.14119 -3.38235 35.47832 13.62846 -2.06912 -31.78933 -8.8682 3.47717 2.55408
0.34417 0.04522 0.05419 60.4264 -16.29367 -8.70322 34.26799 0.82796 -3.60697 -13.0111 1.96924 -0.83078 7.29919 -27.12768 23.27179 124.98165 107.7714 20.96891 0.62922 2.22547 38.53203 -2.37794 122.17635 -89.6758 27.36225 2.6161 25.14443 4.21275 -13.48513 -19.52402 -6.99922 -5.11662 -3.35943 35.49873 13.72827 -1.6031 -31.95859 -8.90312 3.48776 2.56166
0.34529 0.0452 0.05544 60.26991 -16.17148 -8.66609 34.22488 0.90978 -3.4305 -13.17381 2.13916 -0.83078 7.04931 -26.47191 22.89701 124.9306 110.35567 20.75227 1.12088 1.31294 38.37146 -1.69805 122.31992 -92.70334 27.01747 2.23481 25.02426 4.27497 -13.84061 -19.45622 -6.96579 -5.08887 -3.33215 35.45535 13.83927 -1.10231 -32.09009 -8.93987 3.52598 2.58436
0.34598 0.04534 0.05658 60.16095 -16.10074 -8.58362 34.15126 0.95205 -3.22258 -13.2801 2.25979 -0.83078 6.65228 -25.86788 22.54942 124.9238 112.31399 20.54433 1.49892 0.66459 38.16215 -1.08794 122.44957 -95.03226 26.85845 1.94633 24.96499 4.26853 -14.06131 -19.38257 -6.94833 -5.06824 -3.31397 35.55943 13.91781 -0.67893 -32.31935 -8.97907 3.49231 2.56785
